<mxfile host="Electron" modified="2024-08-05T15:55:19.696Z" agent="Mozilla/5.0 (X11; Linux x86_64) AppleWebKit/537.36 (KHTML, like Gecko) draw.io/24.5.3 Chrome/124.0.6367.207 Electron/30.0.6 Safari/537.36" etag="rFHA_ZZLjWpzqOiSMOSQ" version="24.5.3" type="device">
  <diagram name="Page-1" id="a2V-paWtWc2pqJlW6CjX">
    <mxGraphModel dx="830" dy="478" grid="1" gridSize="10" guides="1" tooltips="1" connect="1" arrows="1" fold="1" page="1" pageScale="1" pageWidth="850" pageHeight="1100" math="0" shadow="0">
      <root>
        <mxCell id="0" />
        <mxCell id="1" parent="0" />
        <mxCell id="PS_0JobvipVe8rg2w7dj-1" style="edgeStyle=orthogonalEdgeStyle;rounded=0;orthogonalLoop=1;jettySize=auto;html=1;exitX=1;exitY=0.5;exitDx=0;exitDy=0;entryX=0;entryY=0.5;entryDx=0;entryDy=0;" edge="1" parent="1">
          <mxGeometry relative="1" as="geometry">
            <mxPoint x="400" y="539.8" as="sourcePoint" />
            <mxPoint x="480" y="539.8" as="targetPoint" />
          </mxGeometry>
        </mxCell>
        <mxCell id="PS_0JobvipVe8rg2w7dj-2" value="Virtual Address" style="edgeLabel;html=1;align=center;verticalAlign=middle;resizable=0;points=[];" vertex="1" connectable="0" parent="PS_0JobvipVe8rg2w7dj-1">
          <mxGeometry x="-0.2167" y="-1" relative="1" as="geometry">
            <mxPoint x="9" y="-11" as="offset" />
          </mxGeometry>
        </mxCell>
        <mxCell id="PS_0JobvipVe8rg2w7dj-34" style="edgeStyle=orthogonalEdgeStyle;rounded=0;orthogonalLoop=1;jettySize=auto;html=1;exitX=1.01;exitY=0.875;exitDx=0;exitDy=0;entryX=0;entryY=0.75;entryDx=0;entryDy=0;fillColor=#f8cecc;strokeColor=#b85450;exitPerimeter=0;" edge="1" parent="1" source="PS_0JobvipVe8rg2w7dj-3" target="PS_0JobvipVe8rg2w7dj-32">
          <mxGeometry relative="1" as="geometry">
            <Array as="points">
              <mxPoint x="440" y="590" />
              <mxPoint x="440" y="635" />
            </Array>
          </mxGeometry>
        </mxCell>
        <mxCell id="PS_0JobvipVe8rg2w7dj-35" value="TLB Miss Exception" style="edgeLabel;html=1;align=center;verticalAlign=middle;resizable=0;points=[];" vertex="1" connectable="0" parent="PS_0JobvipVe8rg2w7dj-34">
          <mxGeometry x="0.147" relative="1" as="geometry">
            <mxPoint x="24" y="10" as="offset" />
          </mxGeometry>
        </mxCell>
        <mxCell id="PS_0JobvipVe8rg2w7dj-3" value="CPU" style="rounded=0;whiteSpace=wrap;html=1;" vertex="1" parent="1">
          <mxGeometry x="320" y="520" width="80" height="80" as="geometry" />
        </mxCell>
        <mxCell id="PS_0JobvipVe8rg2w7dj-7" style="edgeStyle=orthogonalEdgeStyle;rounded=0;orthogonalLoop=1;jettySize=auto;html=1;exitX=1;exitY=0.25;exitDx=0;exitDy=0;entryX=0;entryY=0.5;entryDx=0;entryDy=0;fillColor=#d5e8d4;strokeColor=#82b366;" edge="1" parent="1" source="PS_0JobvipVe8rg2w7dj-11" target="PS_0JobvipVe8rg2w7dj-20">
          <mxGeometry relative="1" as="geometry">
            <mxPoint x="580" y="540" as="targetPoint" />
          </mxGeometry>
        </mxCell>
        <mxCell id="PS_0JobvipVe8rg2w7dj-8" value="TLB Hit" style="edgeLabel;html=1;align=center;verticalAlign=middle;resizable=0;points=[];" vertex="1" connectable="0" parent="PS_0JobvipVe8rg2w7dj-7">
          <mxGeometry x="-0.2533" y="-1" relative="1" as="geometry">
            <mxPoint x="5" y="-10" as="offset" />
          </mxGeometry>
        </mxCell>
        <mxCell id="PS_0JobvipVe8rg2w7dj-11" value="TLB" style="rounded=0;whiteSpace=wrap;html=1;" vertex="1" parent="1">
          <mxGeometry x="480" y="520" width="40" height="80" as="geometry" />
        </mxCell>
        <mxCell id="PS_0JobvipVe8rg2w7dj-12" value="&amp;nbsp;" style="rounded=0;whiteSpace=wrap;html=1;fillColor=#f5f5f5;fontColor=#333333;strokeColor=#666666;" vertex="1" parent="1">
          <mxGeometry x="585" y="480" width="80" height="200" as="geometry" />
        </mxCell>
        <mxCell id="PS_0JobvipVe8rg2w7dj-13" value="Physical Memory" style="text;html=1;align=center;verticalAlign=middle;resizable=0;points=[];autosize=1;strokeColor=none;fillColor=none;" vertex="1" parent="1">
          <mxGeometry x="570" y="450" width="110" height="30" as="geometry" />
        </mxCell>
        <mxCell id="PS_0JobvipVe8rg2w7dj-20" value="User Data" style="rounded=0;whiteSpace=wrap;html=1;" vertex="1" parent="1">
          <mxGeometry x="585" y="530" width="80" height="20" as="geometry" />
        </mxCell>
        <mxCell id="PS_0JobvipVe8rg2w7dj-21" value="Kernel Data" style="rounded=0;whiteSpace=wrap;html=1;" vertex="1" parent="1">
          <mxGeometry x="585" y="660" width="80" height="20" as="geometry" />
        </mxCell>
        <mxCell id="PS_0JobvipVe8rg2w7dj-22" value="Kernel Stack" style="rounded=0;whiteSpace=wrap;html=1;" vertex="1" parent="1">
          <mxGeometry x="585" y="640" width="80" height="20" as="geometry" />
        </mxCell>
        <mxCell id="PS_0JobvipVe8rg2w7dj-30" style="edgeStyle=orthogonalEdgeStyle;rounded=0;orthogonalLoop=1;jettySize=auto;html=1;exitX=0.001;exitY=0.633;exitDx=0;exitDy=0;entryX=0.99;entryY=0.633;entryDx=0;entryDy=0;fillColor=#f8cecc;strokeColor=#b85450;entryPerimeter=0;exitPerimeter=0;" edge="1" parent="1" source="PS_0JobvipVe8rg2w7dj-11" target="PS_0JobvipVe8rg2w7dj-3">
          <mxGeometry relative="1" as="geometry" />
        </mxCell>
        <mxCell id="PS_0JobvipVe8rg2w7dj-31" value="TLB Miss" style="edgeLabel;html=1;align=center;verticalAlign=middle;resizable=0;points=[];" vertex="1" connectable="0" parent="PS_0JobvipVe8rg2w7dj-30">
          <mxGeometry x="0.2539" relative="1" as="geometry">
            <mxPoint x="8" y="-10" as="offset" />
          </mxGeometry>
        </mxCell>
        <mxCell id="PS_0JobvipVe8rg2w7dj-36" style="edgeStyle=orthogonalEdgeStyle;rounded=0;orthogonalLoop=1;jettySize=auto;html=1;exitX=0;exitY=0.25;exitDx=0;exitDy=0;entryX=1;entryY=0.75;entryDx=0;entryDy=0;fillColor=#f8cecc;strokeColor=#b85450;" edge="1" parent="1" source="PS_0JobvipVe8rg2w7dj-32" target="PS_0JobvipVe8rg2w7dj-11">
          <mxGeometry relative="1" as="geometry" />
        </mxCell>
        <mxCell id="PS_0JobvipVe8rg2w7dj-37" value="TLB Fill" style="edgeLabel;html=1;align=center;verticalAlign=middle;resizable=0;points=[];" vertex="1" connectable="0" parent="PS_0JobvipVe8rg2w7dj-36">
          <mxGeometry x="0.0717" y="1" relative="1" as="geometry">
            <mxPoint as="offset" />
          </mxGeometry>
        </mxCell>
        <mxCell id="PS_0JobvipVe8rg2w7dj-32" value="TLB Manager" style="rounded=0;whiteSpace=wrap;html=1;" vertex="1" parent="1">
          <mxGeometry x="585" y="620" width="80" height="20" as="geometry" />
        </mxCell>
      </root>
    </mxGraphModel>
  </diagram>
</mxfile>
